<?xml version="1.0" encoding="utf-8"?>
<!-- Generator: Adobe Illustrator 15.1.0, SVG Export Plug-In . SVG Version: 6.00 Build 0)  -->
<!DOCTYPE svg PUBLIC "-//W3C//DTD SVG 1.1 Basic//EN" "http://www.w3.org/Graphics/SVG/1.1/DTD/svg11-basic.dtd">
<svg version="1.1" baseProfile="basic" xmlns="http://www.w3.org/2000/svg" xmlns:xlink="http://www.w3.org/1999/xlink" x="0px"
	 y="0px" width="656.667px" height="175.333px" viewBox="0 0 656.667 175.333" xml:space="preserve">
<g id="Background">
	<rect display="none" width="656.667" height="175.333"/>
</g>
<g id="Logo">
	<g>
		<g id="Divotion_groups">
			<g>
				<path fill="#FFFFFF" d="M238.972,41.862v90.459h-17.748v-9.165c-2.244,3.248-5.028,5.704-8.352,7.366
					c-3.326,1.664-7.116,2.494-11.368,2.494c-5.878,0-11.04-1.334-15.486-4.002c-4.448-2.668-7.888-6.438-10.324-11.31
					c-2.436-4.872-3.654-10.478-3.654-16.82c0-6.264,1.198-11.792,3.596-16.588c2.396-4.794,5.8-8.506,10.208-11.136
					c4.408-2.628,9.472-3.944,15.196-3.944c8.816,0,15.544,3.288,20.184,9.86V41.862H238.972z M216.874,113.819
					c2.9-3.208,4.35-7.366,4.35-12.47s-1.45-9.26-4.35-12.47c-2.9-3.208-6.632-4.814-11.194-4.814c-4.64,0-8.41,1.606-11.31,4.814
					c-2.9,3.21-4.39,7.366-4.466,12.47c0.076,5.104,1.566,9.262,4.466,12.47c2.9,3.21,6.67,4.814,11.31,4.814
					C210.242,118.633,213.974,117.029,216.874,113.819z"/>
				<path fill="#FFFFFF" d="M274.27,44.646c1.816,1.856,2.726,4.254,2.726,7.192c0,2.939-0.91,5.336-2.726,7.192
					c-1.818,1.856-4.158,2.784-7.018,2.784c-2.784,0-5.086-0.946-6.902-2.842c-1.818-1.894-2.726-4.272-2.726-7.134
					c0-2.938,0.908-5.336,2.726-7.192c1.816-1.856,4.118-2.784,6.902-2.784C270.112,41.862,272.452,42.79,274.27,44.646z
					 M258.377,69.954h17.864v62.408h-17.864V69.954z"/>
				<path fill="#FFFFFF" d="M285.476,70.07l18.444-0.116l14.732,45.472l14.615-45.472h17.748l-23.548,62.408H309.14L285.476,70.07z"
					/>
			</g>
			<g>
				<path fill="#FFFFFF" d="M406.234,73.598c4.838,2.675,8.613,6.393,11.328,11.151c2.715,4.76,4.07,10.207,4.07,16.343
					c0,6.136-1.355,11.604-4.07,16.402c-2.715,4.799-6.49,8.537-11.328,11.21c-4.838,2.676-10.365,4.012-16.578,4.012
					c-6.295,0-11.859-1.336-16.697-4.012c-4.838-2.673-8.614-6.39-11.328-11.151c-2.715-4.759-4.071-10.246-4.071-16.461
					c0-6.136,1.356-11.583,4.071-16.343c2.714-4.759,6.49-8.476,11.328-11.151c4.838-2.673,10.402-4.012,16.697-4.012
					C395.869,69.586,401.396,70.925,406.234,73.598z M378.74,81.976c-3.186,1.888-5.664,4.504-7.434,7.847
					c-1.77,3.345-2.655,7.139-2.655,11.387c0,4.327,0.886,8.183,2.655,11.564c1.77,3.383,4.248,6,7.434,7.847
					c3.187,1.85,6.824,2.773,10.916,2.773c4.012,0,7.609-0.924,10.797-2.773c3.186-1.847,5.664-4.463,7.434-7.847
					c1.77-3.381,2.654-7.237,2.654-11.564c0-4.248-0.885-8.042-2.654-11.387c-1.77-3.343-4.248-5.959-7.434-7.847
					c-3.188-1.888-6.785-2.832-10.797-2.832C385.564,79.145,381.927,80.088,378.74,81.976z"/>
				<path fill="#FFFFFF" d="M466.484,128.232c-4.799,3.068-9.676,4.602-14.633,4.602c-4.955,0-8.967-1.475-12.035-4.425
					c-3.068-2.95-4.602-7.414-4.602-13.393V80.027h-8.852V69.94h8.852V55.308h11.092V69.94h19.115v10.087h-19.115v32.983
					c0,3.462,0.629,5.94,1.887,7.434c1.258,1.495,3.146,2.242,5.664,2.242c2.988,0,6.215-0.983,9.676-2.95L466.484,128.232z"/>
				<path fill="#FFFFFF" d="M489.559,43.868c1.297,1.338,1.945,3.029,1.945,5.074c0,2.047-0.648,3.737-1.945,5.074
					c-1.299,1.338-2.932,2.006-4.898,2.006s-3.598-0.667-4.896-2.006c-1.299-1.337-1.947-3.027-1.947-5.074
					c0-2.044,0.648-3.735,1.947-5.074c1.299-1.337,2.93-2.006,4.896-2.006S488.26,42.531,489.559,43.868z M479.232,69.94h10.975
					v62.422h-10.975V69.94z"/>
				<path fill="#FFFFFF" d="M552.662,73.598c4.838,2.675,8.613,6.393,11.328,11.151c2.715,4.76,4.07,10.207,4.07,16.343
					c0,6.136-1.355,11.604-4.07,16.402c-2.715,4.799-6.49,8.537-11.328,11.21c-4.838,2.676-10.365,4.012-16.578,4.012
					c-6.295,0-11.859-1.336-16.697-4.012c-4.838-2.673-8.615-6.39-11.328-11.151c-2.715-4.759-4.072-10.246-4.072-16.461
					c0-6.136,1.357-11.583,4.072-16.343c2.713-4.759,6.49-8.476,11.328-11.151c4.838-2.673,10.402-4.012,16.697-4.012
					C542.297,69.586,547.824,70.925,552.662,73.598z M525.168,81.976c-3.186,1.888-5.664,4.504-7.434,7.847
					c-1.77,3.345-2.654,7.139-2.654,11.387c0,4.327,0.885,8.183,2.654,11.564c1.77,3.383,4.248,6,7.434,7.847
					c3.186,1.85,6.824,2.773,10.916,2.773c4.012,0,7.609-0.924,10.797-2.773c3.186-1.847,5.664-4.463,7.434-7.847
					c1.77-3.381,2.654-7.237,2.654-11.564c0-4.248-0.885-8.042-2.654-11.387c-1.77-3.343-4.248-5.959-7.434-7.847
					c-3.188-1.888-6.785-2.832-10.797-2.832C531.992,79.145,528.354,80.088,525.168,81.976z"/>
				<path fill="#FFFFFF" d="M633.668,76.017c4.17,4.289,6.254,10.207,6.254,17.759v38.586h-10.973V96.726
					c0-5.269-1.477-9.381-4.426-12.331c-2.949-2.95-7.021-4.425-12.213-4.425c-5.586,0.08-10.129,1.87-13.629,5.369
					c-3.502,3.501-5.488,8.044-5.959,13.629v33.394h-10.975V69.94h10.975v13.216c4.168-8.889,12.074-13.412,23.717-13.57
					C623.756,69.586,629.498,71.73,633.668,76.017z"/>
			</g>
		</g>
		<g id="Logo_2_">
			<polygon fill="#FFFFFF" points="54.575,60.164 19.371,157.911 39.432,154.374 67.704,75.856 			"/>
			<polygon fill="#FFFFFF" points="149.208,116.865 129.097,120.543 129.097,120.543 66.694,131.546 59.685,150.803 
				142.269,136.241 162.483,132.677 			"/>
			<polygon fill="#FFFFFF" points="69.074,21.355 61.961,40.895 115.959,104.859 136.173,101.294 			"/>
		</g>
	</g>
</g>
<g id="Guides" display="none">
</g>
</svg>
