<?xml version="1.0" encoding="utf-8"?>
<!-- Generator: Adobe Illustrator 25.2.1, SVG Export Plug-In . SVG Version: 6.00 Build 0)  -->
<svg version="1.1" id="Layer_4" xmlns="http://www.w3.org/2000/svg" xmlns:xlink="http://www.w3.org/1999/xlink" x="0px" y="0px"
	 viewBox="0 0 130.4 113.4" style="enable-background:new 0 0 130.4 113.4;" xml:space="preserve">
<style type="text/css">
	.st0{clip-path:url(#SVGID_2_);}
	.st1{fill:none;stroke:#D9E3E8;stroke-width:2;stroke-miterlimit:10;}
	.st2{fill:none;stroke:#A4ADB3;stroke-width:2;stroke-miterlimit:10;}
</style>
<g>
	<defs>
		<rect id="SVGID_1_" x="-691.7" y="-453.5" width="1417.3" height="1417.3"/>
	</defs>
	<clipPath id="SVGID_2_">
		<use xlink:href="#SVGID_1_"  style="overflow:visible;"/>
	</clipPath>
	<g class="st0">
		<g id="_0">
			<line class="st1" x1="-1145.3" y1="-0.8" x2="1181.2" y2="-0.8"/>
			<line class="st1" x1="-1145.3" y1="55.9" x2="1181.2" y2="55.9"/>
			<line class="st1" x1="-1145.3" y1="112.6" x2="1181.2" y2="112.6"/>
		</g>
		<g id="_120">
			<line class="st2" x1="-1129.3" y1="938.1" x2="33.9" y2="-1076.7"/>
			<line class="st2" x1="-1080.2" y1="966.4" x2="83" y2="-1048.3"/>
			<line class="st2" x1="-1031.1" y1="994.8" x2="132.1" y2="-1020"/>
			<line class="st2" x1="-982" y1="1023.1" x2="181.2" y2="-991.7"/>
			<line class="st2" x1="-932.9" y1="1051.5" x2="230.3" y2="-963.3"/>
			<line class="st2" x1="-883.8" y1="1079.8" x2="279.4" y2="-935"/>
			<line class="st2" x1="-834.8" y1="1108.2" x2="328.5" y2="-906.6"/>
			<line class="st2" x1="-785.7" y1="1136.5" x2="377.6" y2="-878.3"/>
			<line class="st2" x1="-736.5" y1="1164.8" x2="426.7" y2="-849.9"/>
			<line class="st1" x1="-687.5" y1="1193.2" x2="475.8" y2="-821.6"/>
			<line class="st1" x1="-638.4" y1="1221.5" x2="524.9" y2="-793.2"/>
			<line class="st1" x1="-589.3" y1="1249.9" x2="574" y2="-764.9"/>
			<line class="st1" x1="-539.5" y1="1278.6" x2="623.8" y2="-736.1"/>
			<line class="st2" x1="-491.1" y1="1306.6" x2="672.2" y2="-708.2"/>
			<line class="st2" x1="-442" y1="1334.9" x2="721.3" y2="-679.8"/>
			<line class="st2" x1="-392.9" y1="1363.3" x2="770.3" y2="-651.5"/>
			<line class="st2" x1="-343.8" y1="1391.6" x2="819.5" y2="-623.1"/>
			<line class="st2" x1="-294.7" y1="1420" x2="868.5" y2="-594.8"/>
			<line class="st2" x1="-245.6" y1="1448.3" x2="917.7" y2="-566.5"/>
			<line class="st2" x1="-196.5" y1="1476.7" x2="966.7" y2="-538.1"/>
			<line class="st2" x1="-147.4" y1="1505" x2="1015.8" y2="-509.8"/>
			<line class="st2" x1="-98.3" y1="1533.3" x2="1064.9" y2="-481.4"/>
			<line class="st2" x1="-49.2" y1="1561.7" x2="1114" y2="-453.1"/>
			<line class="st2" x1="-0.1" y1="1590.1" x2="1163.1" y2="-424.7"/>
			<line class="st2" x1="49" y1="1618.4" x2="1212.2" y2="-396.4"/>
			<line class="st2" x1="98.1" y1="1646.7" x2="1261.3" y2="-368"/>
		</g>
		<g id="_240">
			<line class="st2" x1="83.8" y1="-1106.3" x2="1247" y2="908.5"/>
			<line class="st2" x1="34.7" y1="-1078" x2="1197.9" y2="936.8"/>
			<line class="st2" x1="-14.4" y1="-1049.6" x2="1148.8" y2="965.1"/>
			<line class="st2" x1="-63.5" y1="-1021.3" x2="1099.7" y2="993.5"/>
			<line class="st2" x1="-112.6" y1="-992.9" x2="1050.7" y2="1021.8"/>
			<line class="st2" x1="-161.7" y1="-964.6" x2="1001.5" y2="1050.2"/>
			<line class="st2" x1="-210.8" y1="-936.2" x2="952.5" y2="1078.5"/>
			<line class="st2" x1="-259.9" y1="-907.9" x2="903.3" y2="1106.9"/>
			<line class="st2" x1="-309" y1="-879.5" x2="854.3" y2="1135.2"/>
			<line class="st1" x1="-358.1" y1="-851.2" x2="805.2" y2="1163.6"/>
			<line class="st1" x1="-407.2" y1="-822.8" x2="756.1" y2="1191.9"/>
			<line class="st1" x1="-456.3" y1="-794.5" x2="707" y2="1220.3"/>
			<line class="st1" x1="-505.4" y1="-766.2" x2="657.9" y2="1248.6"/>
			<line class="st2" x1="-555.2" y1="-737.4" x2="608.1" y2="1277.3"/>
			<line class="st2" x1="-603.5" y1="-709.5" x2="559.7" y2="1305.3"/>
			<line class="st2" x1="-652.7" y1="-681.1" x2="510.6" y2="1333.7"/>
			<line class="st2" x1="-701.8" y1="-652.8" x2="461.5" y2="1362"/>
			<line class="st2" x1="-750.8" y1="-624.4" x2="412.4" y2="1390.3"/>
			<line class="st2" x1="-799.9" y1="-596.1" x2="363.3" y2="1418.7"/>
			<line class="st2" x1="-849" y1="-567.7" x2="314.2" y2="1447"/>
			<line class="st2" x1="-898.1" y1="-539.4" x2="265.1" y2="1475.4"/>
			<line class="st2" x1="-947.2" y1="-511" x2="216" y2="1503.7"/>
			<line class="st2" x1="-996.3" y1="-482.7" x2="166.9" y2="1532.1"/>
			<line class="st2" x1="-1045.4" y1="-454.4" x2="117.8" y2="1560.4"/>
			<line class="st2" x1="-1094.5" y1="-426" x2="68.7" y2="1588.8"/>
			<line class="st2" x1="-1143.6" y1="-397.6" x2="19.6" y2="1617.1"/>
		</g>
	</g>
</g>
</svg>
